<svg xmlns="http://www.w3.org/2000/svg" xmlns:xlink="http://www.w3.org/1999/xlink" viewBox="0 0 1357.04 1367.04"><defs><style>.cls-1{fill:none;}.cls-2{fill:#7fc2d8;}.cls-3{fill:#c0e0f1;}.cls-4{fill:#e79f79;}.cls-5{fill:#e69e78;}.cls-6{fill:#eee;}.cls-7{fill:#a6bfff;}.cls-8{clip-path:url(#clip-path);}.cls-9{clip-path:url(#clip-path-2);}.cls-10{clip-path:url(#clip-path-3);}.cls-11{fill:#274883;}.cls-12{clip-path:url(#clip-path-4);}.cls-13{clip-path:url(#clip-path-5);}.cls-14{fill:url(#linear-gradient);}.cls-15{clip-path:url(#clip-path-6);}.cls-16{fill:#428dfc;}.cls-17{clip-path:url(#clip-path-7);}.cls-18{clip-path:url(#clip-path-8);}.cls-19{clip-path:url(#clip-path-9);}.cls-20{clip-path:url(#clip-path-10);}.cls-21{clip-path:url(#clip-path-11);}.cls-22{clip-path:url(#clip-path-12);}.cls-23{clip-path:url(#clip-path-13);}.cls-24{clip-path:url(#clip-path-14);}.cls-25{fill:url(#linear-gradient-2);}.cls-26{clip-path:url(#clip-path-15);}.cls-27{clip-path:url(#clip-path-16);}.cls-28{clip-path:url(#clip-path-17);}.cls-29{clip-path:url(#clip-path-18);}</style><clipPath id="clip-path"><rect class="cls-1" x="73.65" y="165.98" width="45.08" height="112.02" transform="translate(-111.21 97.41) rotate(-35.58)"/></clipPath><clipPath id="clip-path-2"><rect class="cls-1" x="866.69" y="38.25" width="129.78" height="51.91" transform="translate(94.04 477.1) rotate(-30.19)"/></clipPath><clipPath id="clip-path-3"><rect class="cls-1" x="1139.91" y="424.86" width="125.68" height="50.55"/></clipPath><clipPath id="clip-path-4"><rect class="cls-1" x="1071.6" y="433.06" width="136.61" height="136.61"/></clipPath><clipPath id="clip-path-5"><rect class="cls-1" x="579.8" width="135.25" height="124.32"/></clipPath><linearGradient id="linear-gradient" x1="-330.04" y1="62.16" x2="16729.39" y2="62.16" gradientTransform="matrix(0.01, 0, 0, -0.01, 1047.21, 370.94)" gradientUnits="userSpaceOnUse"><stop offset="0" stop-color="#a1c3fc"/><stop offset="0.7" stop-color="#81aef2"/><stop offset="1" stop-color="#78a9ef"/></linearGradient><clipPath id="clip-path-6"><rect class="cls-1" x="922.7" y="211.75" width="101.09" height="107.92"/></clipPath><clipPath id="clip-path-7"><rect class="cls-1" x="881.82" y="632.51" width="143.44" height="131.15" transform="translate(70.76 1483.74) rotate(-77.88)"/></clipPath><clipPath id="clip-path-8"><rect class="cls-1" x="130.35" y="647.54" width="125.68" height="132.51"/></clipPath><clipPath id="clip-path-9"><rect class="cls-1" x="966.41" y="232.24" width="84.7" height="84.7"/></clipPath><clipPath id="clip-path-10"><rect class="cls-1" x="568.91" y="1263.68" width="45.08" height="112.02" transform="translate(-769.3 830.04) rotate(-46.07)"/></clipPath><clipPath id="clip-path-11"><rect class="cls-1" x="233.98" y="1214.73" width="129.78" height="51.91" transform="translate(-736.43 494.52) rotate(-40.67)"/></clipPath><clipPath id="clip-path-12"><rect class="cls-1" x="130.81" y="1157.12" width="125.68" height="50.55" transform="translate(-212.02 55.01) rotate(-10.49)"/></clipPath><clipPath id="clip-path-13"><rect class="cls-1" x="111.09" y="1270.35" width="68.31" height="68.31" transform="translate(-235.06 48.24) rotate(-10.49)"/></clipPath><clipPath id="clip-path-14"><rect class="cls-1" x="1070.72" y="1240.51" width="135.25" height="124.32" transform="translate(-218.13 229) rotate(-10.49)"/></clipPath><linearGradient id="linear-gradient-2" x1="-728.72" y1="750.47" x2="16330.7" y2="750.47" gradientTransform="translate(1519.55 1995.31) rotate(169.51)" xlink:href="#linear-gradient"/><clipPath id="clip-path-15"><rect class="cls-1" x="402.35" y="1268" width="101.09" height="107.92" transform="translate(-233.09 104.54) rotate(-10.49)"/></clipPath><clipPath id="clip-path-16"><rect class="cls-1" x="241.43" y="894.9" width="143.44" height="131.15" transform="translate(-655.87 1246.1) rotate(-88.37)"/></clipPath><clipPath id="clip-path-17"><rect class="cls-1" x="1075.5" y="673.09" width="125.68" height="132.51" transform="translate(-115.58 219.59) rotate(-10.49)"/></clipPath><clipPath id="clip-path-18"><rect class="cls-1" x="374.01" y="1277.34" width="84.7" height="84.7" transform="translate(-233.29 97.85) rotate(-10.49)"/></clipPath></defs><g id="Layer_2" data-name="Layer 2"><g id="Layer_1-2" data-name="Layer 1"><g id="geometry-i0"><path id="blue_outlined_circle-i0" data-name="blue outlined circle-i0" class="cls-2" d="M579.8,411.44c-72,0-130.54-58.67-130.54-130.78S507.82,149.89,579.8,149.89s130.54,58.67,130.54,130.77S651.78,411.44,579.8,411.44Zm0-247.79c-64.4,0-116.8,52.49-116.8,117s52.4,117,116.8,117,116.8-52.49,116.8-117S644.2,163.65,579.8,163.65Z"/><ellipse id="white_outlined_circle_small-i0" data-name="white outlined circle small-i0" class="cls-3" cx="57.4" cy="676.41" rx="21.64" ry="21.68"/><ellipse id="white_outlined_circle_small_1_-i0" data-name="white outlined circle small 1 -i0" class="cls-4" cx="36.84" cy="608.54" rx="36.84" ry="36.91"/><polygon id="white_square-i0" data-name="white square-i0" class="cls-5" points="500.83 250.13 396.5 318.87 327.89 214.35 432.21 145.62 500.83 250.13"/><polygon id="blue_triangle-i0" data-name="blue triangle-i0" class="cls-2" points="450.95 494.67 256.03 481.75 346.08 631.24 450.95 494.67"/><path id="white_triangle-i0" data-name="white triangle-i0" class="cls-6" d="M797.85,514.25l47.46-233.17,202.23,130.81Zm56.9-210.71L816.42,491.79,1018,409.15Z"/><path id="white_rounded_rectangle-i0" data-name="white rounded rectangle-i0" class="cls-6" d="M93.6,644.54a17.11,17.11,0,0,1,11.91-7.72l64.42-9.57a17.18,17.18,0,0,1,5,34l-64.44,9.57A17.17,17.17,0,0,1,93.6,644.54Zm86.34,4.53a8.92,8.92,0,0,0,1.32-6.13h0a8.92,8.92,0,0,0-10.12-7.51L106.72,645a8.92,8.92,0,0,0,2.61,17.64l64.43-9.57A8.86,8.86,0,0,0,179.94,649.07Z"/><path id="blue_rounded_rectangle-i0" data-name="blue rounded rectangle-i0" class="cls-7" d="M1115.57,205.12a46.29,46.29,0,0,1,71.26-50.88L1323,251.72a46.33,46.33,0,0,1-53.8,75.45L1133,229.69A46.25,46.25,0,0,1,1115.57,205.12Zm212,75a32.65,32.65,0,0,0-12.38-17.42L1179,165.21a32.9,32.9,0,0,0-45.78,7.64,33,33,0,0,0,7.62,45.86l136.21,97.49a32.88,32.88,0,0,0,45.77-7.64A32.86,32.86,0,0,0,1327.59,280.12Z"/><path id="white_outlined_circle-i0" data-name="white outlined circle-i0" class="cls-5" d="M201.24,433.06a53.91,53.91,0,1,1,38.12-15.79A53.7,53.7,0,0,1,201.24,433.06Zm0-98.37a44.32,44.32,0,1,0,31.34,13A44.13,44.13,0,0,0,201.24,334.69Z"/></g><g class="cls-8"><path id="blue_rounded_rectangle-i1" data-name="blue rounded rectangle-i1" class="cls-3" d="M99,262.71l-40.45-56.6a21.36,21.36,0,0,1,34.76-24.83l40.44,56.6A21.36,21.36,0,0,1,99,262.71Zm-9.85-78.46a16.25,16.25,0,0,0-26.44,18.89l40.45,56.6a16.24,16.24,0,0,0,26.43-18.89Z"/></g><g class="cls-9"><path id="blue_rounded_rectangle-i2" data-name="blue rounded rectangle-i2" class="cls-5" d="M978.77,65.23l-69.68,40.49a24.6,24.6,0,0,1-24.71-42.54L954.07,22.7a24.59,24.59,0,1,1,24.7,42.53Zm-91.43,3a18.71,18.71,0,0,0,18.79,32.36l69.69-40.49A18.71,18.71,0,1,0,957,27.79Z"/></g><g class="cls-10"><path id="blue_rounded_rectangle-i3" data-name="blue rounded rectangle-i3" class="cls-11" d="M1241.76,474.11l-78-.05a23.95,23.95,0,0,1,0-47.89l78,0a24,24,0,0,1,0,47.9Zm-78-42.21a18.22,18.22,0,0,0,0,36.43l78,0a18.22,18.22,0,0,0,0-36.43Z"/></g><g class="cls-12"><path id="outlined_square_1-i4" data-name="outlined square 1-i4" class="cls-2" d="M1168.08,569.67l-96.48-40.13,40.14-96.48,96.48,40.13Zm-87.53-43.82,83.84,34.88,34.88-83.85L1115.43,442Z"/></g><g class="cls-13"><path id="half_a_circle-i5" data-name="half a circle-i5" class="cls-14" d="M655.26,124.32A75.45,75.45,0,0,1,596.36,1.7L597.7,0,715.05,95.12l-1.35,1.61A75.57,75.57,0,0,1,655.26,124.32ZM598.42,6A71.25,71.25,0,0,0,709.05,95.66Z"/></g><g class="cls-15"><path id="triangle-i6" class="cls-16" d="M922.7,319.67l6.7-107.92,94.39,50.93Zm9.84-102.21-5.93,96,89.92-50.71Z"/></g><g class="cls-17"><path id="half_a_circle-i9" data-name="half a circle-i9" class="cls-5" d="M1019.4,703.74a79.9,79.9,0,0,1-94.6,61.53,79.08,79.08,0,0,1-45-27.63l-1.46-1.77,124.25-100.6L1004,637A80.35,80.35,0,0,1,1019.4,703.74ZM884.7,736.46a74.88,74.88,0,0,0,106.06,7.44,75.71,75.71,0,0,0,11.06-102.29Z"/></g><g class="cls-18"><path id="triangle-i10" class="cls-16" d="M130.35,780.05l8.33-132.51L256,710.07Zm12.24-125.49-7.38,117.87L247,710.16Z"/></g><g class="cls-19"><circle id="circle-i11" class="cls-2" cx="1008.76" cy="274.59" r="42.35"/></g><g id="geometry-i0-2" data-name="geometry-i0"><path id="blue_outlined_circle-i0-2" data-name="blue outlined circle-i0" class="cls-2" d="M808.26,1023.1c71.34-9.57,137.18,40.79,146.76,112.26s-40.65,137.39-112,147-137.18-40.79-146.76-112.26S736.92,1032.67,808.26,1023.1Zm32.94,245.59c63.83-8.57,108.78-67.56,100.2-131.5s-67.48-109-131.31-100.44-108.78,67.55-100.2,131.49S777.37,1277.25,841.2,1268.69Z"/><ellipse id="white_outlined_circle_small-i0-2" data-name="white outlined circle small-i0" class="cls-3" cx="1290.79" cy="691.03" rx="21.64" ry="21.68" transform="translate(-80.41 177.73) rotate(-7.64)"/><ellipse id="white_outlined_circle_small_1_-i0-2" data-name="white outlined circle small 1 -i0" class="cls-4" cx="1320.2" cy="755.56" rx="36.84" ry="36.91" transform="translate(-88.72 182.2) rotate(-7.64)"/><polygon id="white_square-i0-2" data-name="white square-i0" class="cls-5" points="907.98 1172.47 1002.24 1090.48 1084.13 1184.94 989.88 1266.94 907.98 1172.47"/><polygon id="blue_triangle-i0-2" data-name="blue triangle-i0" class="cls-2" points="924.9 923.47 1119.81 910.37 1010.68 774.17 924.9 923.47"/><path id="white_triangle-i0-2" data-name="white triangle-i0" class="cls-6" d="M387.75,774.51,371.7,1011.93,153.88,909.16ZM359.36,990.92l13-191.67L183.51,908Z"/><path id="white_rounded_rectangle-i0-2" data-name="white rounded rectangle-i0" class="cls-6" d="M1259.16,727.43a17.13,17.13,0,0,1-10.78,9.23l-62.58,18.05a17.18,17.18,0,0,1-9.51-33l62.59-18.05a17.17,17.17,0,0,1,20.28,23.79Zm-86.18,7a8.89,8.89,0,0,0-.49,6.24h0a8.91,8.91,0,0,0,11,6.11l62.59-18a8.92,8.92,0,0,0-4.94-17.14l-62.59,18A8.88,8.88,0,0,0,1173,734.42Z"/><path id="white_outlined_circle-i0-2" data-name="white outlined circle-i0" class="cls-5" d="M1180.59,951.34a53.91,53.91,0,1,1-35.69,20.72A53.62,53.62,0,0,1,1180.59,951.34Zm13.07,97.49a44.32,44.32,0,1,0-32.78-8.7A44.11,44.11,0,0,0,1193.66,1048.83Z"/></g><g class="cls-20"><path id="blue_rounded_rectangle-i1-2" data-name="blue rounded rectangle-i1" class="cls-3" d="M581.24,1280.17l50.07,48.3a21.35,21.35,0,0,1-29.65,30.74l-50.07-48.29a21.36,21.36,0,0,1,29.65-30.75Zm24,75.36a16.25,16.25,0,0,0,22.56-23.39l-50.07-48.29a16.25,16.25,0,0,0-22.56,23.39Z"/></g><g class="cls-21"><path id="blue_rounded_rectangle-i2-2" data-name="blue rounded rectangle-i2" class="cls-5" d="M252.28,1248.27l61.15-52.49a24.59,24.59,0,0,1,32,37.32l-61.15,52.5a24.6,24.6,0,0,1-32-37.33Zm89.36-19.63a18.71,18.71,0,1,0-24.37-28.39l-61.16,52.49a18.71,18.71,0,0,0,24.37,28.39Z"/></g><g class="cls-22"><path id="blue_rounded_rectangle-i3-2" data-name="blue rounded rectangle-i3" class="cls-11" d="M150.93,1165.93l76.75-14.17a23.95,23.95,0,0,1,8.69,47.1L159.62,1213a23.95,23.95,0,0,1-8.69-47.1Zm84.4,27.3a18.22,18.22,0,0,0-6.61-35.83L152,1171.56a18.22,18.22,0,0,0,6.61,35.83Z"/></g><g class="cls-23"><path id="outlined_square_1-i4-2" data-name="outlined square 1-i4" class="cls-2" d="M125.18,1273.49l51.09,11-11,51.08-51.08-11Zm47,13.57-44.39-9.51-9.52,44.39,44.4,9.52Z"/></g><g class="cls-24"><path id="half_a_circle-i5-2" data-name="half a circle-i5" class="cls-25" d="M1119.33,1243a75.45,75.45,0,0,1,80.23,109.85l-1,1.92-132.7-72.17,1-1.83A75.61,75.61,0,0,1,1119.33,1243Zm77.42,106a71.24,71.24,0,0,0-125.1-68Z"/></g><g class="cls-26"><path id="triangle-i6-2" data-name="triangle-i6" class="cls-16" d="M492.78,1259.7,505.83,1367l-102.08-32.9ZM501.7,1362l-11.64-95.48-79.19,66.24Z"/></g><g class="cls-27"><path id="half_a_circle-i9-2" data-name="half a circle-i9" class="cls-5" d="M247.36,966.91a79.51,79.51,0,0,1,131.09-58.75l1.75,1.47L276.34,1031.18l-1.65-1.48A80.33,80.33,0,0,1,247.36,966.91Zm126.49-56.7a74.87,74.87,0,0,0-105.64,12A75.71,75.71,0,0,0,276,1024.8Z"/></g><g class="cls-28"><path id="triangle-i10-2" data-name="triangle-i10" class="cls-16" d="M1188.07,662.76,1204,794.58l-126.77-40.13Zm10.82,125.63-14.21-117.25-98.59,81.58Z"/></g><g class="cls-29"><circle id="circle-i11-2" data-name="circle-i11" class="cls-2" cx="416.36" cy="1319.69" r="42.35"/></g></g></g></svg>